<svg width="18" height="20" viewBox="0 0 18 20" fill="none" xmlns="http://www.w3.org/2000/svg">
    <path
        d="M16 2H15V0.5C15 0.223858 14.7761 0 14.5 0H13.5C13.2239 0 13 0.223858 13 0.5V2H5V0.5C5 0.223858 4.77614 0 4.5 0H3.5C3.22386 0 3 0.223858 3 0.5V2H2C0.9 2 0 2.9 0 4V18C0 19.1 0.9 20 2 20H16C17.1 20 18 19.1 18 18V4C18 2.9 17.1 2 16 2ZM16 18H2V8H16V18ZM2 6V4H16V6H2ZM7.20645 16.1064C7.40171 16.3017 7.71829 16.3017 7.91355 16.1064L13.1364 10.8836C13.3317 10.6883 13.3317 10.3717 13.1364 10.1764L12.7836 9.82355C12.5883 9.62829 12.2717 9.62829 12.0764 9.82355L7.56 14.34L5.80355 12.5836C5.60829 12.3883 5.29171 12.3883 5.09645 12.5836L4.74355 12.9364C4.54829 13.1317 4.54829 13.4483 4.74355 13.6436L7.20645 16.1064Z"
        fill="#4B5565" />
</svg>
