<svg width="24" height="24" viewBox="0 0 24 24" fill="none" xmlns="http://www.w3.org/2000/svg">
    <path
        d="M11.9999 5.52029L16.864 10.3881V18.8365H14.9184V12.3461H9.08151V18.8365H7.13588V10.3881L11.9999 5.52029ZM12.6711 3.28204C12.2953 2.90599 11.7046 2.90599 11.3288 3.28204L3.15177 11.4655C2.83395 11.7835 3.04831 12.3461 3.48732 12.3461H5.19026V19.9784C5.19026 20.5426 5.6258 21 6.16307 21H10.0543C10.5916 21 11.0271 20.5426 11.0271 19.9784V14.5096H12.9728V19.9784C12.9728 20.5426 13.4083 21 13.9456 21H17.8368C18.3741 21 18.8096 20.5426 18.8096 19.9784V12.3461H20.5126C20.9516 12.3461 21.1659 11.7835 20.8481 11.4655L12.6711 3.28204Z"
        fill="#ffffff" />
</svg>
