<svg width="17" height="18" viewBox="0 0 17 18" fill="none" xmlns="http://www.w3.org/2000/svg">
    <path
        d="M0 3C0 1.34315 1.34315 0 3 0H7.5C8.05228 0 8.5 0.447715 8.5 1C8.5 1.55228 8.05228 2 7.5 2H3C2.44772 2 2 2.44772 2 3V15C2 15.5523 2.44772 16 3 16H7.5C8.05228 16 8.5 16.4477 8.5 17C8.5 17.5523 8.05228 18 7.5 18H3C1.34315 18 0 16.6569 0 15V3Z"
        fill="#4B5565" />
    <path
        d="M12.9795 4.31606C12.6018 3.91315 11.969 3.89273 11.5661 4.27046C11.1631 4.64819 11.1427 5.28103 11.5205 5.68394L13.6918 8H7C6.44772 8 6 8.44772 6 9C6 9.55228 6.44772 10 7 10H13.6918L11.5205 12.3161C11.1427 12.719 11.1631 13.3518 11.5661 13.7295C11.969 14.1073 12.6018 14.0869 12.9795 13.6839L16.7295 9.68394C17.0902 9.29928 17.0902 8.70072 16.7295 8.31606L12.9795 4.31606Z"
        fill="#4B5565" />
</svg>
