<svg width="17" height="6" viewBox="0 0 17 6" fill="none" xmlns="http://www.w3.org/2000/svg">
    <path
        d="M3.75 3.5L1.49686 0.3456C1.34194 0.128717 1.09182 0 0.825291 0C0.369495 0 0 0.369495 0 0.825291V5.375C0 5.72018 0.279822 6 0.625 6C0.970178 6 1.25 5.72018 1.25 5.375V2.5L3.56174 5.67298C3.71145 5.87846 3.95037 6 4.20461 6C4.64389 6 5 5.64389 5 5.20461V0.625C5 0.279822 4.72018 0 4.375 0C4.02982 0 3.75 0.279822 3.75 0.625V3.5ZM6 5C6 5.55228 6.44772 6 7 6H9.375C9.72018 6 10 5.72018 10 5.375C10 5.02982 9.72018 4.75 9.375 4.75H7.5V3.64H9.37C9.71794 3.64 10 3.35794 10 3.01C10 2.66206 9.71794 2.38 9.37 2.38H7.5V1.26H9.37C9.71794 1.26 10 0.97794 10 0.63C10 0.282061 9.71794 0 9.37 0H7C6.44772 0 6 0.447715 6 1V5ZM16.375 0C16.0298 0 15.75 0.279822 15.75 0.625V4.5H14.63V1.615C14.63 1.26982 14.3502 0.99 14.005 0.99C13.6598 0.99 13.38 1.26982 13.38 1.615V4.51H12.25V0.625001C12.25 0.279823 11.9702 0 11.625 0C11.2798 0 11 0.279822 11 0.625V5C11 5.55 11.45 6 12 6H16C16.55 6 17 5.55 17 5V0.625C17 0.279822 16.7202 0 16.375 0Z"
        fill="#4B5565" />
</svg>
