<svg width="16" height="16" viewBox="0 0 16 16" fill="none" xmlns="http://www.w3.org/2000/svg">
    <path fill-rule="evenodd" clip-rule="evenodd"
        d="M5.41113 14.3462L13.3429 6.41273L9.58554 2.6552L1.65509 10.5886C1.22923 11.0143 0.927145 11.5478 0.781159 12.132L0.020122 15.1736C-0.00794371 15.2851 -0.00662992 15.4018 0.0239352 15.5126C0.0545003 15.6233 0.113271 15.7243 0.194505 15.8055C0.275739 15.8867 0.376657 15.9455 0.487398 15.9761C0.598139 16.0066 0.714916 16.0079 0.826316 15.9799L3.86914 15.2188C4.45268 15.073 4.98566 14.7714 5.41113 14.3462ZM10 7.40786L5.02772 12.3803C4.86828 12.5396 4.66856 12.6526 4.44988 12.7073L3.30965 12.9924C3.2679 13.0029 3.22414 13.0024 3.18264 12.991C3.14114 12.9795 3.10333 12.9575 3.07289 12.9271C3.04245 12.8966 3.02042 12.8588 3.00897 12.8173C2.99752 12.7758 2.99702 12.7321 3.00754 12.6903L3.29272 11.5507C3.34743 11.3318 3.46063 11.1319 3.62021 10.9724L8.592 6L10 7.40786Z"
        fill="#4B5565" />
    <path
        d="M16 2.65653C16 1.95214 15.7202 1.27659 15.2223 0.778432C14.9756 0.531646 14.6827 0.335878 14.3604 0.202312C14.038 0.0687464 13.6925 0 13.3436 0C12.9947 0 12.6491 0.0687464 12.3268 0.202312C12.0044 0.335878 11.7116 0.531646 11.4649 0.778432L10.5246 1.71615L14.2819 5.47235L15.2223 4.53463C15.7202 4.03648 16 3.36092 16 2.65653Z"
        fill="#4B5565" />
</svg>
