<svg width="14" height="18" viewBox="0 0 14 18" fill="none" xmlns="http://www.w3.org/2000/svg">
    <path
        d="M11 6V16H3V6H11ZM9.79289 0.292893C9.60536 0.105356 9.351 0 9.08579 0H4.91421C4.649 0 4.39464 0.105357 4.20711 0.292893L3.5 1H1C0.447715 1 0 1.44772 0 2C0 2.55228 0.447715 3 1 3H13C13.5523 3 14 2.55228 14 2C14 1.44772 13.5523 1 13 1H10.5L9.79289 0.292893ZM13 5C13 4.44772 12.5523 4 12 4H2C1.44772 4 1 4.44772 1 5V16C1 17.1 1.9 18 3 18H11C12.1 18 13 17.1 13 16V5Z"
        fill="red" />
</svg>
