<svg width="15" height="15" viewBox="0 0 15 15" fill="none" xmlns="http://www.w3.org/2000/svg">
    <path
        d="M14.795 11.2587C15.0683 10.9708 15.0683 10.5039 14.795 10.216C14.5216 9.92801 14.0784 9.92801 13.805 10.216L10.7317 13.4533C10.6405 13.5493 10.4928 13.5493 10.4017 13.4533L9.19497 12.1822C8.92161 11.8943 8.47839 11.8943 8.20503 12.1822C7.93166 12.4702 7.93166 12.937 8.20503 13.225L9.41173 14.4961C10.0496 15.168 11.0838 15.168 11.7216 14.4961L14.795 11.2587Z"
        fill="#797979" />
    <path fill-rule="evenodd" clip-rule="evenodd"
        d="M4.83945 0.665251C5.47897 0.231509 6.23085 0 7 0C8.0314 0 9.02055 0.415882 9.74986 1.15616C10.4792 1.89643 10.8889 2.90046 10.8889 3.94737C10.8889 4.72808 10.6608 5.49127 10.2335 6.14041C9.80618 6.78955 9.19882 7.2955 8.48821 7.59426C7.77761 7.89303 6.99569 7.9712 6.24132 7.81889C5.48695 7.66658 4.79401 7.29063 4.25014 6.73858C3.70627 6.18653 3.33589 5.48318 3.18584 4.71746C3.03578 3.95175 3.11279 3.15806 3.40714 2.43678C3.70148 1.71549 4.19992 1.09899 4.83945 0.665251ZM5.70367 5.91664C6.08738 6.17688 6.53851 6.31579 7 6.31579C7.61884 6.31579 8.21233 6.06626 8.64992 5.6221C9.0875 5.17793 9.33333 4.57551 9.33333 3.94737C9.33333 3.47894 9.19649 3.02103 8.9401 2.63154C8.68371 2.24206 8.31929 1.93849 7.89293 1.75923C7.46657 1.57997 6.99741 1.53307 6.54479 1.62446C6.09217 1.71584 5.67641 1.94141 5.35008 2.27264C5.02376 2.60387 4.80153 3.02588 4.7115 3.48531C4.62147 3.94474 4.66768 4.42095 4.84428 4.85372C5.02089 5.2865 5.31995 5.65639 5.70367 5.91664Z"
        fill="#797979" />
    <path
        d="M10.9001 11.1165C11.154 11.3743 11.5805 11.4134 11.8323 11.1534L11.993 10.9876C12.2551 10.7169 12.2835 10.2908 12.0205 10.021C12.0137 10.014 12.0069 10.007 12 10C10.979 8.96361 9.99951 8.68421 8.55556 8.68421H5.44444C4.00049 8.68421 2.61567 9.26645 1.59464 10.3028C0.573609 11.3392 0 12.7449 0 14.2105V14.2222C0 14.6518 0.348223 15 0.777778 15C1.20733 15 1.55556 14.6518 1.55556 14.2222V14.2105C1.55556 13.1636 1.96528 12.1596 2.69458 11.4193C3.42389 10.679 4.41305 10.2632 5.44444 10.2632H8.55556C9.58695 10.2632 10.1707 10.3762 10.9001 11.1165Z"
        fill="#797979" />
</svg>
